<mxfile>
    <diagram id="RQiJoaOTIOBQtdcLWyci" name="Page-1">
        <mxGraphModel dx="585" dy="514" grid="1" gridSize="10" guides="1" tooltips="1" connect="1" arrows="1" fold="1" page="1" pageScale="1" pageWidth="827" pageHeight="1169" math="0" shadow="0">
            <root>
                <mxCell id="0"/>
                <mxCell id="1" parent="0"/>
                <mxCell id="2" value="Warrior" style="rounded=0;whiteSpace=wrap;html=1;" vertex="1" parent="1">
                    <mxGeometry x="280" y="110" width="120" height="40" as="geometry"/>
                </mxCell>
                <mxCell id="3" value="+attack()" style="rounded=0;whiteSpace=wrap;html=1;" vertex="1" parent="1">
                    <mxGeometry x="280" y="190" width="120" height="50" as="geometry"/>
                </mxCell>
                <mxCell id="4" value="Orc" style="rounded=0;whiteSpace=wrap;html=1;" vertex="1" parent="1">
                    <mxGeometry x="160" y="320" width="120" height="40" as="geometry"/>
                </mxCell>
                <mxCell id="5" value="Elf" style="rounded=0;whiteSpace=wrap;html=1;" vertex="1" parent="1">
                    <mxGeometry x="370" y="320" width="110" height="40" as="geometry"/>
                </mxCell>
                <mxCell id="6" value="+attack()" style="rounded=0;whiteSpace=wrap;html=1;" vertex="1" parent="1">
                    <mxGeometry x="160" y="390" width="120" height="50" as="geometry"/>
                </mxCell>
                <mxCell id="7" value="+attack()" style="rounded=0;whiteSpace=wrap;html=1;" vertex="1" parent="1">
                    <mxGeometry x="370" y="400" width="110" height="40" as="geometry"/>
                </mxCell>
                <mxCell id="8" value="HumanAdapter" style="rounded=0;whiteSpace=wrap;html=1;" vertex="1" parent="1">
                    <mxGeometry x="560" y="320" width="120" height="40" as="geometry"/>
                </mxCell>
                <mxCell id="9" value="+attack()" style="rounded=0;whiteSpace=wrap;html=1;" vertex="1" parent="1">
                    <mxGeometry x="560" y="400" width="120" height="40" as="geometry"/>
                </mxCell>
                <mxCell id="10" value="Human" style="rounded=0;whiteSpace=wrap;html=1;" vertex="1" parent="1">
                    <mxGeometry x="560" y="520" width="120" height="40" as="geometry"/>
                </mxCell>
                <mxCell id="11" value="+kick()&lt;br&gt;+punch()" style="rounded=0;whiteSpace=wrap;html=1;" vertex="1" parent="1">
                    <mxGeometry x="560" y="560" width="120" height="40" as="geometry"/>
                </mxCell>
                <mxCell id="12" value="-constructor()" style="rounded=0;whiteSpace=wrap;html=1;" vertex="1" parent="1">
                    <mxGeometry x="280" y="150" width="120" height="40" as="geometry"/>
                </mxCell>
                <mxCell id="13" value="-constructor()&lt;br&gt;-super()" style="rounded=0;whiteSpace=wrap;html=1;" vertex="1" parent="1">
                    <mxGeometry x="160" y="360" width="120" height="40" as="geometry"/>
                </mxCell>
                <mxCell id="14" value="-constructor()&lt;br&gt;-super()" style="rounded=0;whiteSpace=wrap;html=1;" vertex="1" parent="1">
                    <mxGeometry x="370" y="360" width="110" height="40" as="geometry"/>
                </mxCell>
                <mxCell id="15" value="-constructor()&lt;br&gt;-super()" style="rounded=0;whiteSpace=wrap;html=1;" vertex="1" parent="1">
                    <mxGeometry x="560" y="360" width="120" height="40" as="geometry"/>
                </mxCell>
                <mxCell id="17" value="" style="endArrow=none;html=1;exitX=0.5;exitY=0;exitDx=0;exitDy=0;" edge="1" parent="1" source="4">
                    <mxGeometry width="50" height="50" relative="1" as="geometry">
                        <mxPoint x="420" y="390" as="sourcePoint"/>
                        <mxPoint x="425" y="318" as="targetPoint"/>
                        <Array as="points">
                            <mxPoint x="220" y="280"/>
                            <mxPoint x="425" y="280"/>
                        </Array>
                    </mxGeometry>
                </mxCell>
                <mxCell id="18" value="" style="endArrow=classic;html=1;entryX=0.5;entryY=1;entryDx=0;entryDy=0;" edge="1" parent="1" target="3">
                    <mxGeometry width="50" height="50" relative="1" as="geometry">
                        <mxPoint x="340" y="280" as="sourcePoint"/>
                        <mxPoint x="380" y="240" as="targetPoint"/>
                    </mxGeometry>
                </mxCell>
                <mxCell id="19" value="" style="endArrow=classic;html=1;entryX=1;entryY=1;entryDx=0;entryDy=0;" edge="1" parent="1" target="3">
                    <mxGeometry width="50" height="50" relative="1" as="geometry">
                        <mxPoint x="620" y="320" as="sourcePoint"/>
                        <mxPoint x="670" y="270" as="targetPoint"/>
                    </mxGeometry>
                </mxCell>
                <mxCell id="20" value="" style="endArrow=classic;html=1;entryX=0.5;entryY=1;entryDx=0;entryDy=0;" edge="1" parent="1" target="9">
                    <mxGeometry width="50" height="50" relative="1" as="geometry">
                        <mxPoint x="620" y="520" as="sourcePoint"/>
                        <mxPoint x="620" y="450" as="targetPoint"/>
                    </mxGeometry>
                </mxCell>
            </root>
        </mxGraphModel>
    </diagram>
</mxfile>